<svg xmlns="http://www.w3.org/2000/svg" viewBox="0 0 348.37 108.80" role="img" aria-label="KKapp">
  <title>KKapp</title>
  <path fill="currentColor" d="M29.50 48.40L54 19L81.40 19L56.70 47.30L81.90 87.80L55.80 87.80L41.50 62.60L29.50 72.40L29.50 87.80L7.40 87.80L7.40 19L29.50 19L29.50 48.40Z M108.64 48.40L133.13 19L160.54 19L135.84 47.30L161.04 87.80L134.94 87.80L120.64 62.60L108.64 72.40L108.64 87.80L86.54 87.80L86.54 19L108.64 19L108.64 48.40Z M190.37 33.80Q202.47 33.80 210.07 37.85Q217.67 41.90 217.67 51.00L217.67 51.00L217.67 71.60Q217.67 73.30 218.47 74.40Q219.27 75.50 220.87 75.50L220.87 75.50L224.47 75.50L224.47 87Q224.17 87.20 222.92 87.65Q221.67 88.10 219.37 88.55Q217.07 89 214.07 89L214.07 89Q208.27 89 204.52 87.25Q200.77 85.50 199.37 82.40L199.37 82.40Q195.57 85.40 190.87 87.20Q186.17 89 179.87 89L179.87 89Q161.27 89 161.27 74.20L161.27 74.20Q161.27 66.50 165.42 62.45Q169.57 58.40 177.37 56.90Q185.17 55.40 197.77 55.40L197.77 55.40L197.77 52.80Q197.77 49.70 195.62 48.10Q193.47 46.50 190.07 46.50L190.07 46.50Q186.97 46.50 184.72 47.60Q182.47 48.70 182.47 51.10L182.47 51.10L182.47 51.50L162.87 51.50Q162.77 51.00 162.77 50.10L162.77 50.10Q162.77 42.60 169.92 38.20Q177.07 33.80 190.37 33.80L190.37 33.80ZM197.77 64.80Q189.27 64.80 185.22 66.65Q181.17 68.50 181.17 71.60L181.17 71.60Q181.17 76.60 187.97 76.60L187.97 76.60Q191.87 76.60 194.82 74.50Q197.77 72.40 197.77 69.30L197.77 69.30L197.77 64.80Z M262.44 33.80Q273.13 33.80 278.94 40.80Q284.74 47.80 284.74 61.50L284.74 61.50Q284.74 75.10 278.94 82.05Q273.13 89 262.44 89L262.44 89Q253.24 89 247.64 83L247.64 83L247.64 107.50L227.74 107.50L227.74 35.00L243.94 35.00L245.64 42.50Q251.44 33.80 262.44 33.80L262.44 33.80ZM256.24 48.50Q251.84 48.50 249.64 51.60Q247.44 54.70 247.44 59.70L247.44 59.70L247.44 63Q247.44 68 249.64 71.15Q251.84 74.30 256.24 74.30L256.24 74.30Q264.84 74.30 264.84 64L264.84 64L264.84 58.70Q264.84 48.50 256.24 48.50L256.24 48.50Z M325.80 33.80Q336.50 33.80 342.30 40.80Q348.10 47.80 348.10 61.50L348.10 61.50Q348.10 75.10 342.30 82.05Q336.50 89 325.80 89L325.80 89Q316.60 89 311 83L311 83L311 107.50L291.10 107.50L291.10 35.00L307.30 35.00L309 42.50Q314.80 33.80 325.80 33.80L325.80 33.80ZM319.60 48.50Q315.20 48.50 313 51.60Q310.80 54.70 310.80 59.70L310.80 59.70L310.80 63Q310.80 68 313 71.15Q315.20 74.30 319.60 74.30L319.60 74.30Q328.20 74.30 328.20 64L328.20 64L328.20 58.70Q328.20 48.50 319.60 48.50L319.60 48.50Z"></path>
</svg>